<?xml version="1.0" encoding="UTF-8" standalone="no"?>
<!DOCTYPE svg PUBLIC "-//W3C//DTD SVG 1.1//EN"
 "http://www.w3.org/Graphics/SVG/1.1/DTD/svg11.dtd">
<!-- Generated by graphviz version 2.43.0 (0)
 -->
<!-- Title: theorem13_minimal Pages: 1 -->
<svg width="941pt" height="507pt"
 viewBox="0.00 0.00 940.80 506.80" xmlns="http://www.w3.org/2000/svg" xmlns:xlink="http://www.w3.org/1999/xlink">
<g id="graph0" class="graph" transform="scale(1 1) rotate(0) translate(14.4 492.4)">
<title>theorem13_minimal</title>
<polygon fill="white" stroke="transparent" points="-14.4,14.4 -14.4,-492.4 926.4,-492.4 926.4,14.4 -14.4,14.4"/>
<text text-anchor="middle" x="456" y="-462.8" font-family="Helvetica,sans-Serif" font-size="14.00">TaoCollatz.HoleProof.theorem13 — recursively inlined minimal dependency graph</text>
<text text-anchor="middle" x="456" y="-447.8" font-family="Helvetica,sans-Serif" font-size="14.00">Pruned by substitution/unused&#45;argument elimination: analyticInputs, step1&#45;5, piece37_driftPackage, piece61_oddControlPackage</text>
<!-- theorem13 -->
<g id="node1" class="node">
<title>theorem13</title>
<path fill="#dbeafe" stroke="#2563eb" stroke-width="1.2" d="M492.25,-440C492.25,-440 433.25,-440 433.25,-440 427.25,-440 421.25,-434 421.25,-428 421.25,-428 421.25,-416 421.25,-416 421.25,-410 427.25,-404 433.25,-404 433.25,-404 492.25,-404 492.25,-404 498.25,-404 504.25,-410 504.25,-416 504.25,-416 504.25,-428 504.25,-428 504.25,-434 498.25,-440 492.25,-440"/>
<text text-anchor="middle" x="462.75" y="-425.2" font-family="Helvetica,sans-Serif" font-size="11.00">theorem13</text>
<text text-anchor="middle" x="462.75" y="-413.2" font-family="Helvetica,sans-Serif" font-size="11.00">(HoleProof)</text>
</g>
<!-- theorem13From -->
<g id="node2" class="node">
<title>theorem13From</title>
<path fill="#e0f2fe" stroke="#0284c7" stroke-width="1.2" d="M552.25,-364C552.25,-364 373.25,-364 373.25,-364 367.25,-364 361.25,-358 361.25,-352 361.25,-352 361.25,-340 361.25,-340 361.25,-334 367.25,-328 373.25,-328 373.25,-328 552.25,-328 552.25,-328 558.25,-328 564.25,-334 564.25,-340 564.25,-340 564.25,-352 564.25,-352 564.25,-358 558.25,-364 552.25,-364"/>
<text text-anchor="middle" x="462.75" y="-349.2" font-family="Helvetica,sans-Serif" font-size="11.00">theorem13GenuineFromSyracuse</text>
<text text-anchor="middle" x="462.75" y="-337.2" font-family="Helvetica,sans-Serif" font-size="11.00">(MinimalProof)</text>
</g>
<!-- theorem13&#45;&gt;theorem13From -->
<g id="edge1" class="edge">
<title>theorem13&#45;&gt;theorem13From</title>
<path fill="none" stroke="#4b5563" stroke-width="1.1" d="M462.75,-403.99C462.75,-403.99 462.75,-371.15 462.75,-371.15"/>
<polygon fill="#4b5563" stroke="#4b5563" stroke-width="1.1" points="465.2,-371.15 462.75,-364.15 460.3,-371.15 465.2,-371.15"/>
</g>
<!-- gate -->
<g id="node3" class="node">
<title>gate</title>
<path fill="#dcfce7" stroke="#16a34a" stroke-width="1.2" d="M441.25,-288C441.25,-288 222.25,-288 222.25,-288 216.25,-288 210.25,-282 210.25,-276 210.25,-276 210.25,-264 210.25,-264 210.25,-258 216.25,-252 222.25,-252 222.25,-252 441.25,-252 441.25,-252 447.25,-252 453.25,-258 453.25,-264 453.25,-264 453.25,-276 453.25,-276 453.25,-282 447.25,-288 441.25,-288"/>
<text text-anchor="middle" x="331.75" y="-273.2" font-family="Helvetica,sans-Serif" font-size="11.00">syracuseDensityControl</text>
<text text-anchor="middle" x="331.75" y="-261.2" font-family="Helvetica,sans-Serif" font-size="11.00">= assembleSyracuseGate analyticInputs</text>
</g>
<!-- theorem13From&#45;&gt;gate -->
<g id="edge2" class="edge">
<title>theorem13From&#45;&gt;gate</title>
<path fill="none" stroke="#4b5563" stroke-width="1.1" d="M407.25,-327.99C407.25,-327.99 407.25,-295.15 407.25,-295.15"/>
<polygon fill="#4b5563" stroke="#4b5563" stroke-width="1.1" points="409.7,-295.15 407.25,-288.15 404.8,-295.15 409.7,-295.15"/>
</g>
<!-- colBelow -->
<g id="node7" class="node">
<title>colBelow</title>
<path fill="#f3e8ff" stroke="#7e22ce" stroke-width="1.2" d="M697.25,-288C697.25,-288 490.25,-288 490.25,-288 484.25,-288 478.25,-282 478.25,-276 478.25,-276 478.25,-264 478.25,-264 478.25,-258 484.25,-252 490.25,-252 490.25,-252 697.25,-252 697.25,-252 703.25,-252 709.25,-258 709.25,-264 709.25,-264 709.25,-276 709.25,-276 709.25,-282 703.25,-288 697.25,-288"/>
<text text-anchor="middle" x="593.75" y="-273.2" font-family="Helvetica,sans-Serif" font-size="11.00">colBelowFromSyrBelow</text>
<text text-anchor="middle" x="593.75" y="-261.2" font-family="Helvetica,sans-Serif" font-size="11.00">= simulationTransfersEventuallyBelow</text>
</g>
<!-- theorem13From&#45;&gt;colBelow -->
<g id="edge3" class="edge">
<title>theorem13From&#45;&gt;colBelow</title>
<path fill="none" stroke="#4b5563" stroke-width="1.1" d="M521.25,-327.99C521.25,-327.99 521.25,-295.15 521.25,-295.15"/>
<polygon fill="#4b5563" stroke="#4b5563" stroke-width="1.1" points="523.7,-295.15 521.25,-288.15 518.8,-295.15 523.7,-295.15"/>
</g>
<!-- step8 -->
<g id="node4" class="node">
<title>step8</title>
<path fill="#dcfce7" stroke="#16a34a" stroke-width="1.2" d="M383.75,-212C383.75,-212 279.75,-212 279.75,-212 273.75,-212 267.75,-206 267.75,-200 267.75,-200 267.75,-188 267.75,-188 267.75,-182 273.75,-176 279.75,-176 279.75,-176 383.75,-176 383.75,-176 389.75,-176 395.75,-182 395.75,-188 395.75,-188 395.75,-200 395.75,-200 395.75,-206 389.75,-212 383.75,-212"/>
<text text-anchor="middle" x="331.75" y="-197.2" font-family="Helvetica,sans-Serif" font-size="11.00">step8</text>
<text text-anchor="middle" x="331.75" y="-185.2" font-family="Helvetica,sans-Serif" font-size="11.00">= oddToPosTransfer</text>
</g>
<!-- gate&#45;&gt;step8 -->
<g id="edge4" class="edge">
<title>gate&#45;&gt;step8</title>
<path fill="none" stroke="#4b5563" stroke-width="1.1" d="M331.75,-251.99C331.75,-251.99 331.75,-219.15 331.75,-219.15"/>
<polygon fill="#4b5563" stroke="#4b5563" stroke-width="1.1" points="334.2,-219.15 331.75,-212.15 329.3,-219.15 334.2,-219.15"/>
</g>
<!-- step7 -->
<g id="node5" class="node">
<title>step7</title>
<path fill="#fee2e2" stroke="#dc2626" stroke-width="1.2" d="M401.75,-136C401.75,-136 261.75,-136 261.75,-136 255.75,-136 249.75,-130 249.75,-124 249.75,-124 249.75,-100 249.75,-100 249.75,-94 255.75,-88 261.75,-88 261.75,-88 401.75,-88 401.75,-88 407.75,-88 413.75,-94 413.75,-100 413.75,-100 413.75,-124 413.75,-124 413.75,-130 407.75,-136 401.75,-136"/>
<text text-anchor="middle" x="331.75" y="-121.2" font-family="Helvetica,sans-Serif" font-size="11.00">step7</text>
<text text-anchor="middle" x="331.75" y="-109.2" font-family="Helvetica,sans-Serif" font-size="11.00">= piece59_diagonalHeight</text>
<text text-anchor="middle" x="331.75" y="-97.2" font-family="Helvetica,sans-Serif" font-size="11.00">HOLE frontier</text>
</g>
<!-- step8&#45;&gt;step7 -->
<g id="edge5" class="edge">
<title>step8&#45;&gt;step7</title>
<path fill="none" stroke="#4b5563" stroke-width="1.1" d="M331.75,-175.8C331.75,-175.8 331.75,-143.06 331.75,-143.06"/>
<polygon fill="#4b5563" stroke="#4b5563" stroke-width="1.1" points="334.2,-143.06 331.75,-136.06 329.3,-143.06 334.2,-143.06"/>
</g>
<!-- step6 -->
<g id="node6" class="node">
<title>step6</title>
<path fill="#fef3c7" stroke="#d97706" stroke-width="1.2" d="M448.75,-48C448.75,-48 214.75,-48 214.75,-48 208.75,-48 202.75,-42 202.75,-36 202.75,-36 202.75,-12 202.75,-12 202.75,-6 208.75,0 214.75,0 214.75,0 448.75,0 448.75,0 454.75,0 460.75,-6 460.75,-12 460.75,-12 460.75,-36 460.75,-36 460.75,-42 454.75,-48 448.75,-48"/>
<text text-anchor="middle" x="331.75" y="-33.2" font-family="Helvetica,sans-Serif" font-size="11.00">step6</text>
<text text-anchor="middle" x="331.75" y="-21.2" font-family="Helvetica,sans-Serif" font-size="11.00">= piece49_descentDensityFromContraction</text>
<text text-anchor="middle" x="331.75" y="-9.2" font-family="Helvetica,sans-Serif" font-size="11.00">(body ignores exactAffine and step5)</text>
</g>
<!-- step7&#45;&gt;step6 -->
<g id="edge6" class="edge">
<title>step7&#45;&gt;step6</title>
<path fill="none" stroke="#4b5563" stroke-width="1.1" d="M331.75,-87.95C331.75,-87.95 331.75,-55.02 331.75,-55.02"/>
<polygon fill="#4b5563" stroke="#4b5563" stroke-width="1.1" points="334.2,-55.02 331.75,-48.02 329.3,-55.02 334.2,-55.02"/>
</g>
<!-- simulation -->
<g id="node8" class="node">
<title>simulation</title>
<path fill="#f3e8ff" stroke="#7e22ce" stroke-width="1.2" d="M676.25,-212C676.25,-212 511.25,-212 511.25,-212 505.25,-212 499.25,-206 499.25,-200 499.25,-200 499.25,-188 499.25,-188 499.25,-182 505.25,-176 511.25,-176 511.25,-176 676.25,-176 676.25,-176 682.25,-176 688.25,-182 688.25,-188 688.25,-188 688.25,-200 688.25,-200 688.25,-206 682.25,-212 676.25,-212"/>
<text text-anchor="middle" x="593.75" y="-191.2" font-family="Helvetica,sans-Serif" font-size="11.00">provenOddPartOrbitSimulation</text>
</g>
<!-- colBelow&#45;&gt;simulation -->
<g id="edge7" class="edge">
<title>colBelow&#45;&gt;simulation</title>
<path fill="none" stroke="#4b5563" stroke-width="1.1" d="M593.75,-251.99C593.75,-251.99 593.75,-219.15 593.75,-219.15"/>
<polygon fill="#4b5563" stroke="#4b5563" stroke-width="1.1" points="596.2,-219.15 593.75,-212.15 591.3,-219.15 596.2,-219.15"/>
</g>
</g>
</svg>
